<?xml version="1.0" encoding="UTF-8" standalone="no"?>
<!-- Created with Inkscape (http://www.inkscape.org/) -->

<svg
   xmlns:dc="http://purl.org/dc/elements/1.1/"
   xmlns:cc="http://creativecommons.org/ns#"
   xmlns:rdf="http://www.w3.org/1999/02/22-rdf-syntax-ns#"
   xmlns:svg="http://www.w3.org/2000/svg"
   xmlns="http://www.w3.org/2000/svg"
   xmlns:xlink="http://www.w3.org/1999/xlink"
   xmlns:sodipodi="http://sodipodi.sourceforge.net/DTD/sodipodi-0.dtd"
   xmlns:inkscape="http://www.inkscape.org/namespaces/inkscape"
   width="30"
   height="30"
   viewBox="0 0 30 30"
   id="svg2"
   version="1.1"
   inkscape:version="0.91 r13725"
   sodipodi:docname="coriander.svg">
  <defs
     id="defs4">
    <linearGradient
       inkscape:collect="always"
       xlink:href="#linearGradient8481"
       id="linearGradient6947"
       gradientUnits="userSpaceOnUse"
       gradientTransform="translate(-397.18581,-557.16881)"
       x1="-92.321564"
       y1="2146.7388"
       x2="-66.785896"
       y2="2146.7388" />
    <linearGradient
       id="linearGradient8481"
       inkscape:collect="always">
      <stop
         id="stop8483"
         offset="0"
         style="stop-color:#f2d06b;stop-opacity:1" />
      <stop
         style="stop-color:#f2b469;stop-opacity:1"
         offset="0.10049145"
         id="stop8485" />
      <stop
         style="stop-color:#c28e4c;stop-opacity:1"
         offset="0.47021395"
         id="stop8487" />
      <stop
         id="stop8489"
         offset="0.65500599"
         style="stop-color:#f2b56b;stop-opacity:1" />
      <stop
         id="stop8491"
         offset="1"
         style="stop-color:#f9ebc0;stop-opacity:1" />
    </linearGradient>
  </defs>
  <sodipodi:namedview
     id="base"
     pagecolor="#7d7d7d"
     bordercolor="#666666"
     borderopacity="1.0"
     inkscape:pageopacity="0"
     inkscape:pageshadow="2"
     inkscape:zoom="14.582113"
     inkscape:cx="16.366863"
     inkscape:cy="18.782677"
     inkscape:document-units="px"
     inkscape:current-layer="layer2"
     showgrid="false"
     units="px"
     inkscape:showpageshadow="false"
     inkscape:window-width="1439"
     inkscape:window-height="935"
     inkscape:window-x="1782"
     inkscape:window-y="1"
     inkscape:window-maximized="0"
     inkscape:snap-global="true" />
  <metadata
     id="metadata7">
    <rdf:RDF>
      <cc:Work
         rdf:about="">
        <dc:format>image/svg+xml</dc:format>
        <dc:type
           rdf:resource="http://purl.org/dc/dcmitype/StillImage" />
        <dc:title></dc:title>
      </cc:Work>
    </rdf:RDF>
  </metadata>
  <g
     inkscape:label="Fondo blanco"
     inkscape:groupmode="layer"
     id="layer1"
     transform="translate(0,-1022.3622)"
     sodipodi:insensitive="true"
     style="display:none">
    <rect
       style="fill:#ffffff;fill-rule:evenodd;stroke:#000000;stroke-width:1.00673926px;stroke-linecap:butt;stroke-linejoin:miter;stroke-opacity:1"
       id="rect3334"
       width="763.99329"
       height="988.99323"
       x="0.50335693"
       y="62.865593" />
  </g>
  <g
     inkscape:groupmode="layer"
     id="layer2"
     inkscape:label="Plano 1"
     transform="translate(0,-960)">
    <g
       transform="matrix(-1.0402779,0.7829663,0.7829663,1.0402779,-1721.2842,-306.44866)"
       style="display:inline"
       id="g11425-7-2">
      <path
         inkscape:connector-curvature="0"
         id="path5577-8-57-2-1-5-7-1-1-3"
         d="m -470.8036,1597.3398 c -0.083,0.01 -0.2523,-0.1753 -0.3437,-0.3744 -0.1386,-0.3023 -0.2055,-0.5409 -0.273,-0.9734 -0.032,-0.2086 -0.073,-0.3907 -0.09,-0.4042 -0.017,-0.014 -0.091,0.049 -0.1628,0.1401 -0.072,0.091 -0.1647,0.1652 -0.1983,0.173 -0.1109,0.013 -0.2428,-0.1229 -0.2593,-0.2662 -0.029,-0.2512 0.1318,-0.8115 0.3476,-1.2068 0.1,-0.1839 0.3376,-0.9591 0.375,-1.2226 0.036,-0.2492 0.025,-0.3676 -0.039,-0.4185 -0.043,-0.034 -0.091,0.017 -0.3937,0.437 -0.632,0.8732 -1.116,1.7134 -1.3868,2.4106 -0.323,0.8323 -0.7811,1.5891 -0.9871,1.632 -0.1649,0.034 -0.2608,-0.1361 -0.3169,-0.5604 -0.028,-0.2131 -0.094,-0.3318 -0.1695,-0.3048 -0.029,0.01 -0.1672,0.1433 -0.308,0.2956 -0.4654,0.5064 -0.8845,0.8158 -1.0311,0.7623 -0.048,-0.018 -0.073,-0.1587 -0.055,-0.3146 0.016,-0.1384 -0.081,-0.086 -0.3357,0.1839 -0.3505,0.3727 -0.5354,0.4205 -0.4945,0.1296 0.013,-0.09 0,-0.1778 -0.016,-0.1947 -0.057,-0.046 -0.1971,-0.01 -0.381,0.098 -0.2265,0.1317 -0.5509,0.2236 -0.678,0.1917 -0.092,-0.023 -0.1073,-0.042 -0.1081,-0.1443 0,-0.208 0.1017,-0.3891 0.5948,-1.041 0.5174,-0.6846 0.7347,-0.905 1.1181,-1.15 0.1222,-0.077 0.2219,-0.1545 0.2168,-0.1782 0,-0.021 -0.1489,-0.067 -0.3261,-0.1033 -0.3948,-0.082 -0.4863,-0.1586 -0.3806,-0.3205 0.1455,-0.2247 0.9788,-0.7217 1.4513,-0.8678 0.1221,-0.038 0.4629,-0.094 0.7573,-0.1253 0.591,-0.063 0.9568,-0.1662 1.2611,-0.3565 0.1542,-0.097 0.209,-0.1449 0.2242,-0.2251 0.041,-0.1787 -0.032,-0.1894 -0.5482,-0.085 -0.6085,0.1231 -1.2324,0.08 -1.7718,-0.1221 -0.2541,-0.095 -0.3441,-0.1458 -0.39,-0.2194 -0.081,-0.1299 -0.03,-0.2066 0.2095,-0.3127 0.1118,-0.049 0.2088,-0.097 0.2162,-0.1052 0.012,-0.01 -0.036,-0.055 -0.096,-0.1027 -0.06,-0.048 -0.1,-0.098 -0.089,-0.1116 0.032,-0.047 0.4784,-0.067 0.7577,-0.04 0.3715,0.036 0.3929,-0.01 0.1058,-0.2302 -0.2109,-0.1614 -0.2253,-0.1816 -0.186,-0.2488 0.099,-0.1661 0.8003,-0.1021 1.623,0.1502 0.8431,0.2585 1.3814,0.2683 1.859,0.034 0.1905,-0.093 0.4147,-0.2846 1.1384,-0.9732 0.1414,-0.1277 0.1653,-0.2923 0.053,-0.3089 -0.039,-0.01 -0.3293,0.027 -0.6466,0.073 -2.1411,0.3104 -4.433,0.2471 -6.3153,-0.1746 -0.493,-0.1104 -0.7821,-0.1045 -1.0831,0.022 -0.3692,0.1553 -0.4958,0.3457 -0.8195,1.2306 -0.3901,1.0656 -0.528,1.338 -0.9426,1.8642 -0.3932,0.5018 -0.527,0.594 -0.7872,0.5462 -0.2844,-0.052 -0.3013,-0.284 -0.062,-0.846 0.065,-0.1527 0.1146,-0.3039 0.1106,-0.3368 -0.012,-0.1063 -0.1676,-0.025 -0.3915,0.2083 -0.4561,0.4728 -1.0903,0.8744 -1.7305,1.0923 -0.4056,0.1381 -0.6032,0.069 -0.4951,-0.173 0.029,-0.063 0.038,-0.1326 0.029,-0.1508 -0.014,-0.02 -0.1222,-0.045 -0.2434,-0.055 -0.1216,-0.011 -0.2753,-0.05 -0.3424,-0.088 -0.1038,-0.058 -0.1201,-0.087 -0.1098,-0.1936 0.01,-0.104 0.05,-0.1727 0.2561,-0.3997 0.2766,-0.3096 0.5909,-0.5173 1.0108,-0.6694 0.346,-0.1252 0.3638,-0.1737 0.1381,-0.3853 -0.099,-0.093 -0.1837,-0.1997 -0.1882,-0.2367 -0.012,-0.1012 0.1515,-0.2693 0.3458,-0.3616 0.2246,-0.104 0.9415,-0.2898 1.4032,-0.3642 0.7043,-0.1135 1.3716,-0.3442 1.4676,-0.5074 0.1642,-0.2777 -0.4543,-0.2055 -2.3253,0.2744 -2.8183,0.7232 -2.9918,0.7629 -3.1855,0.7304 -0.2555,-0.043 -0.4895,-0.1883 -0.5374,-0.334 -0.021,-0.063 -0.018,-0.138 0.01,-0.1678 0.092,-0.094 0.3579,-0.2118 0.689,-0.2766 0.3772,-0.074 0.7791,-0.225 0.8572,-0.3227 0.1582,-0.2016 -0.1598,-0.2447 -1.0313,-0.1421 -0.7515,0.088 -1.0025,0.086 -1.1247,-0.011 -0.087,-0.069 -0.028,-0.1536 0.1985,-0.2877 0.2225,-0.1311 0.206,-0.2075 -0.049,-0.284 -0.3279,-0.1017 -0.6235,-0.2623 -0.7906,-0.4287 -0.1893,-0.1888 -0.331,-0.4448 -0.3346,-0.6038 -0.01,-0.337 0.4753,-0.5093 1.1988,-0.4272 0.1104,0.012 0.2092,0 0.2185,-0.024 0.01,-0.027 -0.045,-0.1443 -0.1215,-0.2643 -0.1722,-0.2715 -0.1916,-0.3594 -0.099,-0.4511 0.1681,-0.1691 0.5567,-0.018 1.443,0.559 0.581,0.3781 0.8448,0.5214 1.0282,0.5588 0.1358,0.028 0.1578,0.013 0.164,-0.1109 0,-0.079 -0.023,-0.1043 -0.2844,-0.2658 -0.4281,-0.2639 -0.8419,-0.6968 -1.0006,-1.0468 -0.1743,-0.3846 -0.1311,-0.6267 0.1085,-0.6042 0.1668,0.016 0.5062,0.1827 0.7298,0.3591 0.2634,0.2075 0.3211,0.2062 0.3155,-0.01 -0.01,-0.1609 2e-4,-0.1706 0.083,-0.1667 0.1227,0.01 0.3023,0.1577 0.7062,0.5974 0.781,0.8498 1.6341,1.5296 2.3385,1.863 0.5176,0.2452 1.3762,0.4749 1.5009,0.4016 0.1324,-0.078 0.045,-0.1529 -0.4834,-0.4126 -0.844,-0.4147 -1.3043,-0.7067 -2.0708,-1.3136 -0.5157,-0.4093 -0.7031,-0.574 -0.7537,-0.6668 -0.099,-0.1814 -0.011,-0.2633 0.2936,-0.2723 0.2195,-0.01 0.2431,-0.015 0.2064,-0.079 -0.024,-0.04 -0.2264,-0.1699 -0.4611,-0.2958 -0.2308,-0.1235 -0.4349,-0.2504 -0.4534,-0.2819 -0.043,-0.072 0.01,-0.1357 0.1,-0.1439 0.151,3e-4 0.1427,-0.075 -0.026,-0.239 -0.2624,-0.2552 -0.4181,-0.5076 -0.3877,-0.6286 0.032,-0.1496 0.2164,-0.1629 0.6646,-0.063 l 0.3602,0.081 -0.032,-0.142 c -0.042,-0.1869 0.043,-0.1991 0.2781,-0.04 0.096,0.066 0.2132,0.1379 0.2591,0.1613 l 0.084,0.042 0,-0.1579 c -0.01,-0.2198 0.09,-0.2537 0.3556,-0.124 0.383,0.1866 0.6067,0.4818 0.8812,1.1559 0.1148,0.2834 0.3039,0.5111 0.363,0.4373 0.027,-0.02 0.019,-0.1168 -0.01,-0.1997 -0.07,-0.236 -0.1546,-0.9417 -0.1286,-1.0736 0.048,-0.2411 0.085,-0.2453 0.3097,-0.033 0.1113,0.105 0.2445,0.272 0.2961,0.3708 0.1239,0.2375 0.1543,0.2562 0.2646,0.1632 0.1649,-0.1391 0.2712,0.024 0.4039,0.6205 0.075,0.3377 0.2122,1.1996 0.3073,1.9326 0.1142,0.8792 0.115,0.8809 0.4687,1.1631 l 0.2886,0.2298 0.6592,0.1326 c 2.0424,0.4102 4.4846,0.4299 6.3175,0.051 0.4856,-0.1005 0.5544,-0.1573 0.4299,-0.3549 -0.096,-0.1531 -1.2998,-1.1098 -1.4944,-1.1883 -0.2814,-0.1132 -0.4661,-0.067 -1.294,0.3239 -0.8234,0.3888 -1.126,0.5005 -1.2785,0.4725 -0.077,-0.014 -0.094,-0.033 -0.091,-0.1072 0,-0.05 0.037,-0.1281 0.074,-0.1768 0.1041,-0.1322 0.014,-0.1662 -0.2457,-0.093 -0.3515,0.099 -0.9638,0.2071 -1.0017,0.1768 -0.022,-0.018 0.022,-0.076 0.1215,-0.1803 0.086,-0.085 0.1491,-0.1711 0.1391,-0.1948 -0.01,-0.022 -0.1451,3e-4 -0.3054,0.046 -0.3389,0.1007 -0.4425,0.075 -0.3579,-0.09 0.031,-0.061 0.053,-0.114 0.049,-0.1173 -0.01,-0.01 -0.091,-0.027 -0.1929,-0.053 -0.2245,-0.056 -0.4678,-0.2342 -0.4139,-0.3019 0.019,-0.027 0.1174,-0.06 0.2138,-0.078 0.2135,-0.038 0.2234,-0.047 0.1442,-0.131 -0.1163,-0.1226 0.011,-0.1591 0.3788,-0.1081 0.2016,0.028 0.3824,0.041 0.4019,0.028 0.027,-0.01 -0.035,-0.08 -0.1381,-0.1618 -0.1501,-0.1202 -0.1673,-0.1465 -0.1262,-0.1981 0.052,-0.067 0.3584,-0.062 0.7815,0.01 0.3925,0.067 1.0419,0.1181 1.2291,0.097 0.1335,-0.015 0.1625,-0.031 0.1605,-0.096 0,-0.1928 -0.6678,-0.4153 -1.4312,-0.4793 -0.2716,-0.023 -0.725,-0.021 -1.008,0 -0.4316,0.039 -0.527,0.034 -0.5934,-0.033 -0.05,-0.051 -0.07,-0.1151 -0.054,-0.174 0.033,-0.1152 0.016,-0.1294 -0.1184,-0.1078 -0.1447,0.023 -0.2162,-0.045 -0.1835,-0.174 0.028,-0.099 0.016,-0.1137 -0.1417,-0.209 -0.1508,-0.091 -0.1654,-0.11 -0.1376,-0.1824 0.046,-0.1195 0.1767,-0.1631 0.5492,-0.1925 0.3095,-0.023 0.3284,-0.03 0.2534,-0.091 -0.045,-0.036 -0.2546,-0.1243 -0.4663,-0.196 -0.8168,-0.2761 -1.4121,-0.7959 -0.8895,-0.7766 0.16,0.01 0.2888,-0.1022 0.2323,-0.1973 -0.017,-0.03 -0.1134,-0.075 -0.2129,-0.1 -0.4464,-0.1128 -0.9199,-0.7492 -0.731,-0.9828 0.115,-0.1479 0.388,-0.2219 0.6573,-0.1858 0.3092,0.042 0.4549,0.1004 0.7507,0.3026 0.3241,0.2216 0.4539,0.2925 0.4788,0.2616 0.015,-0.012 -0.011,-0.1118 -0.052,-0.2176 -0.077,-0.2002 -0.055,-0.3495 0.053,-0.3618 0.043,2e-4 0.2644,0.1468 0.654,0.4468 0.3242,0.2502 0.6107,0.4521 0.6363,0.4496 0.025,-3e-4 -0.018,-0.1378 -0.096,-0.3008 -0.1413,-0.293 -0.2078,-0.6799 -0.133,-0.7736 0.072,-0.091 0.2302,-0.016 0.6353,0.3045 0.2501,0.1985 0.4077,0.3028 0.4237,0.2826 0.018,-0.014 0.024,-0.084 0.031,-0.1437 0,-0.077 0.023,-0.1147 0.065,-0.1181 0.1154,-0.013 0.3104,0.2668 0.5334,0.7634 0.4652,1.0356 1.2302,2.3852 1.4526,2.5626 0.091,0.072 0.137,0.088 0.1631,0.055 0.019,-0.027 -0.018,-0.3106 -0.085,-0.6344 -0.1661,-0.8063 -0.2618,-1.7254 -0.2251,-2.162 0.04,-0.4795 0.087,-0.5313 0.2864,-0.3157 0.055,0.06 0.099,0.083 0.1166,0.061 0.019,-0.014 0.038,-0.1741 0.05,-0.3437 0.027,-0.3653 0.1118,-0.6449 0.3246,-1.0621 0.1777,-0.3492 0.2312,-0.3841 0.431,-0.2781 0.227,0.1207 0.3302,0.3226 0.3687,0.7224 0.02,0.2034 0.018,0.4641 0,0.5789 -0.022,0.1152 -0.023,0.2217 0,0.2372 0.041,0.033 0.185,-0.067 0.2114,-0.1453 0.01,-0.03 0.042,-0.069 0.086,-0.077 0.098,-0.034 0.13,0.087 0.094,0.3624 -0.028,0.2135 -0.1536,0.5842 -0.3757,1.106 -0.051,0.1206 -0.079,0.23 -0.06,0.2443 0.056,0.044 0.267,-0.1008 0.5497,-0.3762 0.4443,-0.432 0.6196,-0.5239 0.7693,-0.4046 0.1315,0.1045 0.1186,0.3568 -0.034,0.6688 -0.1166,0.2389 -0.2164,0.3716 -0.7083,0.9475 -0.946,1.1052 -0.994,1.1694 -1.046,1.3867 -0.051,0.2121 -0.027,0.5565 0.051,0.7305 0.088,0.1976 0.5604,0.6365 0.9536,0.8863 0.9345,0.5939 1.4063,0.5651 2.9358,-0.1794 1.3351,-0.6499 2.4658,-1.4315 3.5562,-2.4582 0.4731,-0.445 1.0538,-1.0601 1.3433,-1.4206 0.2232,-0.2856 0.3508,-0.3529 0.526,-0.3145 0.1065,0.024 0.1318,0.046 0.1889,0.1641 0.1087,0.2238 0.042,0.3733 -0.3778,0.8521 -1.6419,1.8713 -3.6721,3.2556 -5.9342,4.0466 -0.5104,0.1785 -1.2604,0.5415 -1.7478,0.846 -0.2545,0.159 -0.3208,0.2227 -0.5997,0.569 -0.2981,0.3807 -0.304,0.4036 -0.3173,0.5677 -0.01,0.4243 0.3133,1.0774 0.8434,1.706 0.5843,0.6928 0.6682,0.8664 0.4352,0.9 -0.1766,0.025 -0.2149,0.098 -0.1487,0.289 0.1217,0.3531 0.091,0.6236 -0.065,0.574 -0.034,-0.011 -0.155,-0.068 -0.268,-0.1261 -0.3403,-0.1764 -0.3843,-0.058 -0.202,0.5462 0.1464,0.4863 0.1022,0.6366 -0.1515,0.5259 -0.088,-0.038 -0.1663,-0.047 -0.1871,-0.021 -0.025,0.018 -0.026,0.201 -0.014,0.3916 0.012,0.1907 0.01,0.4135 -0.013,0.4949 -0.033,0.1512 -0.1494,0.3274 -0.2172,0.3349 z"
         style="display:inline;fill:#2f2a35;fill-opacity:1" />
      <path
         inkscape:connector-curvature="0"
         id="path5577-8-57-2-1-5-7-74-77"
         d="m -471.21981,1596.7865 c -0.0837,0.01 -0.25234,-0.1753 -0.34372,-0.3744 -0.13855,-0.3023 -0.20552,-0.5409 -0.27298,-0.9734 -0.0325,-0.2087 -0.0734,-0.3907 -0.0903,-0.4042 -0.0167,-0.014 -0.0911,0.049 -0.16306,0.1398 -0.072,0.091 -0.16452,0.1655 -0.19843,0.1727 -0.11124,0.013 -0.24287,-0.1229 -0.25925,-0.2662 -0.0286,-0.2512 0.13172,-0.8115 0.34755,-1.2068 0.0998,-0.1838 0.33762,-0.9591 0.37498,-1.2226 0.0364,-0.2492 0.0247,-0.3676 -0.0388,-0.4185 -0.0431,-0.034 -0.0903,0.017 -0.39361,0.437 -0.63213,0.8732 -1.11606,1.7134 -1.38687,2.4106 -0.32295,0.8323 -0.78109,1.5891 -0.98711,1.632 -0.16485,0.034 -0.26082,-0.1361 -0.3169,-0.5604 -0.0281,-0.2131 -0.094,-0.3318 -0.16944,-0.3048 -0.029,0.01 -0.16691,0.1437 -0.30804,0.2956 -0.46543,0.5064 -0.88454,0.8158 -1.03136,0.762 -0.0479,-0.018 -0.0726,-0.1587 -0.0547,-0.3146 0.0159,-0.1384 -0.0809,-0.086 -0.33564,0.1841 -0.35058,0.3725 -0.53524,0.4207 -0.49449,0.1296 0.0134,-0.09 0.005,-0.1778 -0.0157,-0.1947 -0.0576,-0.046 -0.19702,-0.01 -0.38094,0.098 -0.22664,0.1315 -0.55089,0.2236 -0.67803,0.1917 -0.0921,-0.023 -0.10736,-0.042 -0.10806,-0.1443 -0.002,-0.208 0.10164,-0.3891 0.59481,-1.041 0.51737,-0.6846 0.73466,-0.905 1.11803,-1.15 0.12215,-0.077 0.21982,-0.1573 0.21671,-0.1783 -0.004,-0.021 -0.1489,-0.067 -0.32606,-0.1033 -0.39485,-0.082 -0.48637,-0.1587 -0.38063,-0.3206 0.14576,-0.2243 0.97875,-0.7217 1.45134,-0.8678 0.12212,-0.038 0.46283,-0.094 0.75726,-0.1253 0.591,-0.063 0.95682,-0.1661 1.26109,-0.3565 0.15442,-0.097 0.20649,-0.1482 0.22401,-0.2253 0.0411,-0.1787 -0.0318,-0.1894 -0.54823,-0.085 -0.60846,0.1231 -1.23237,0.08 -1.77173,-0.1221 -0.25413,-0.095 -0.34408,-0.1458 -0.39002,-0.2194 -0.0813,-0.1299 -0.03,-0.2066 0.20943,-0.3127 0.11192,-0.049 0.2089,-0.097 0.21609,-0.1054 0.0124,-0.01 -0.0361,-0.055 -0.0962,-0.1027 -0.06,-0.048 -0.1,-0.098 -0.0892,-0.1114 0.0321,-0.047 0.47844,-0.067 0.75765,-0.04 0.37154,0.036 0.39291,-0.01 0.10585,-0.2302 -0.21086,-0.1615 -0.22532,-0.1817 -0.18572,-0.2491 0.0989,-0.1664 0.80031,-0.1021 1.62304,0.1502 0.84308,0.2585 1.38145,0.2684 1.859,0.034 0.1908,-0.093 0.41445,-0.285 1.13868,-0.9728 0.14133,-0.1279 0.16535,-0.2923 0.0526,-0.309 -0.0389,-0.01 -0.32931,0.027 -0.64662,0.073 -2.14105,0.3105 -4.43304,0.2471 -6.31526,-0.1745 -0.49299,-0.1105 -0.78214,-0.1045 -1.08309,0.022 -0.36897,0.1556 -0.49568,0.3459 -0.81955,1.2306 -0.39015,1.0656 -0.52801,1.338 -0.94252,1.8642 -0.39325,0.5018 -0.52707,0.594 -0.7873,0.5461 -0.28445,-0.052 -0.30137,-0.284 -0.0618,-0.846 0.0648,-0.1527 0.11461,-0.3039 0.11055,-0.3368 -0.012,-0.1065 -0.16754,-0.025 -0.39167,0.208 -0.45606,0.4728 -1.09035,0.8743 -1.73047,1.0923 -0.40558,0.1382 -0.60319,0.069 -0.49517,-0.173 0.0286,-0.063 0.0382,-0.1325 0.0288,-0.1507 -0.0141,-0.02 -0.12214,-0.045 -0.24338,-0.055 -0.12158,-0.011 -0.27532,-0.05 -0.3423,-0.088 -0.10388,-0.058 -0.12014,-0.087 -0.10988,-0.1937 0.0101,-0.1038 0.0497,-0.1727 0.25613,-0.3997 0.27664,-0.3095 0.5907,-0.5176 1.01067,-0.6696 0.34595,-0.1252 0.36344,-0.174 0.13802,-0.3853 -0.0991,-0.093 -0.1837,-0.1997 -0.18786,-0.237 -0.0116,-0.1007 0.15146,-0.2693 0.34564,-0.3618 0.22466,-0.104 0.94147,-0.2898 1.40321,-0.3642 0.7043,-0.1135 1.37162,-0.3442 1.46752,-0.5074 0.16426,-0.2777 -0.45426,-0.2055 -2.32526,0.2744 -2.8183,0.7232 -2.99177,0.7629 -3.18545,0.7304 -0.25554,-0.043 -0.4895,-0.1883 -0.53744,-0.334 -0.0204,-0.063 -0.0175,-0.138 0.006,-0.1678 0.0925,-0.094 0.35774,-0.212 0.68896,-0.2766 0.37721,-0.074 0.7792,-0.225 0.8573,-0.3227 0.15803,-0.2018 -0.15986,-0.2446 -1.03136,-0.1421 -0.75148,0.088 -1.0025,0.086 -1.12469,-0.011 -0.0867,-0.069 -0.0276,-0.1536 0.19855,-0.2876 0.22224,-0.1314 0.20612,-0.2074 -0.049,-0.2841 -0.32786,-0.1017 -0.62347,-0.2623 -0.79053,-0.4287 -0.18939,-0.1887 -0.33121,-0.4446 -0.33468,-0.6038 -0.007,-0.337 0.47531,-0.5093 1.19886,-0.4272 0.1104,0.012 0.20913,0 0.21848,-0.024 0.008,-0.027 -0.0448,-0.1443 -0.12139,-0.2643 -0.17231,-0.2715 -0.19164,-0.3594 -0.099,-0.4511 0.16819,-0.1691 0.55678,-0.018 1.44308,0.559 0.58093,0.3781 0.84469,0.5214 1.0282,0.5588 0.13582,0.028 0.15773,0.013 0.16272,-0.1126 0.004,-0.079 -0.0229,-0.1046 -0.28435,-0.2658 -0.42808,-0.2639 -0.84193,-0.6968 -1.00059,-1.0468 -0.17427,-0.3846 -0.13116,-0.6267 0.10845,-0.6042 0.16687,0.016 0.50623,0.1827 0.72974,0.3591 0.26344,0.2075 0.32118,0.2062 0.31556,-0.01 -0.005,-0.161 2.1e-4,-0.1706 0.0834,-0.1669 0.1226,0.01 0.30226,0.1577 0.70618,0.5974 0.78101,0.8498 1.63411,1.5296 2.33855,1.863 0.51755,0.2452 1.37612,0.4749 1.50089,0.4016 0.1327,-0.078 0.045,-0.153 -0.4835,-0.4127 -0.8439,-0.4146 -1.30418,-0.7066 -2.07075,-1.3135 -0.51568,-0.4093 -0.7031,-0.574 -0.75368,-0.6669 -0.0987,-0.1814 -0.0106,-0.2632 0.29345,-0.2724 0.2195,-0.01 0.24307,-0.015 0.20642,-0.079 -0.0238,-0.04 -0.22634,-0.1699 -0.46105,-0.2958 -0.23084,-0.1235 -0.43499,-0.2504 -0.4534,-0.2819 -0.0435,-0.073 0.007,-0.1357 0.0997,-0.1439 0.15072,0 0.14248,-0.075 -0.0259,-0.239 -0.26242,-0.2552 -0.418,-0.5077 -0.38768,-0.6286 0.0326,-0.1493 0.21476,-0.165 0.66461,-0.063 l 0.36016,0.081 -0.0319,-0.142 c -0.0419,-0.1868 0.0428,-0.1991 0.27814,-0.04 0.0964,0.066 0.21317,0.1379 0.25908,0.1613 l 0.0836,0.042 -0.004,-0.158 c -0.005,-0.2197 0.0897,-0.2536 0.35557,-0.1239 0.38303,0.1866 0.60676,0.4818 0.88092,1.1562 0.11478,0.2833 0.30392,0.5111 0.363,0.4372 0.0236,-0.024 0.019,-0.1165 -0.006,-0.1997 -0.0699,-0.236 -0.15455,-0.9417 -0.12864,-1.0736 0.0476,-0.2411 0.0852,-0.2452 0.3097,-0.033 0.11136,0.1051 0.24457,0.272 0.29621,0.3709 0.12385,0.2374 0.15424,0.2562 0.26457,0.1632 0.16501,-0.139 0.27123,0.024 0.40391,0.6204 0.0752,0.3377 0.21219,1.1996 0.30733,1.9327 0.11417,0.8791 0.11493,0.8808 0.46865,1.163 l 0.28863,0.2299 0.65918,0.1325 c 2.04242,0.4103 4.48458,0.4299 6.31752,0.051 0.48548,-0.1005 0.55437,-0.1573 0.43002,-0.3546 -0.0965,-0.1532 -1.29981,-1.1099 -1.49441,-1.1883 -0.28137,-0.1132 -0.46612,-0.067 -1.29398,0.3239 -0.82344,0.3888 -1.12597,0.5005 -1.27848,0.4725 -0.0772,-0.014 -0.0935,-0.033 -0.091,-0.107 0.002,-0.05 0.037,-0.1284 0.0738,-0.1766 0.10371,-0.1325 0.0135,-0.1661 -0.24575,-0.093 -0.35154,0.099 -0.96375,0.2071 -1.00166,0.1768 -0.0228,-0.018 0.0218,-0.076 0.12158,-0.1801 0.0858,-0.085 0.14917,-0.171 0.13929,-0.1945 -0.007,-0.022 -0.14531,0 -0.30536,0.046 -0.33898,0.1006 -0.44253,0.075 -0.35785,-0.09 0.0311,-0.061 0.0536,-0.1137 0.0494,-0.1173 -0.009,-0.01 -0.091,-0.027 -0.19294,-0.053 -0.22448,-0.056 -0.46785,-0.2342 -0.41393,-0.3019 0.0221,-0.023 0.11705,-0.06 0.2141,-0.078 0.21351,-0.038 0.22325,-0.047 0.14426,-0.1309 -0.11629,-0.1226 0.0115,-0.1591 0.37881,-0.1081 0.20157,0.028 0.3824,0.041 0.40197,0.028 0.0249,-0.011 -0.0353,-0.08 -0.13814,-0.1618 -0.15008,-0.1202 -0.16738,-0.1465 -0.1262,-0.1981 0.0525,-0.067 0.35836,-0.062 0.78152,0.01 0.39244,0.067 1.04191,0.1181 1.22903,0.097 0.13375,-0.015 0.16243,-0.031 0.16033,-0.096 -0.004,-0.1928 -0.66776,-0.4153 -1.43115,-0.4793 -0.27156,-0.023 -0.72507,-0.021 -1.00804,0 -0.43161,0.039 -0.52695,0.034 -0.59338,-0.033 -0.0499,-0.051 -0.0699,-0.1151 -0.054,-0.174 0.0332,-0.1154 0.0155,-0.1296 -0.1184,-0.1078 -0.1444,0.023 -0.21621,-0.045 -0.1835,-0.174 0.0286,-0.099 0.0162,-0.114 -0.1417,-0.209 -0.1508,-0.091 -0.16533,-0.11 -0.1376,-0.1824 0.0458,-0.1193 0.17649,-0.1633 0.54922,-0.1925 0.30948,-0.023 0.32842,-0.03 0.25311,-0.091 -0.0448,-0.036 -0.25463,-0.1243 -0.46627,-0.196 -0.81678,-0.2761 -1.4121,-0.7959 -0.88953,-0.7766 0.16004,0.01 0.28877,-0.1022 0.23251,-0.197 -0.0174,-0.03 -0.1134,-0.075 -0.21294,-0.1 -0.44633,-0.1127 -0.91982,-0.7491 -0.73124,-0.9825 0.11531,-0.1475 0.38787,-0.222 0.65727,-0.1858 0.30923,0.042 0.45487,0.1004 0.75068,0.3026 0.32414,0.2216 0.45398,0.2925 0.47879,0.2616 0.0141,-0.013 -0.0114,-0.1122 -0.0521,-0.2176 -0.0771,-0.2003 -0.0551,-0.3495 0.0532,-0.3618 0.0429,0 0.2644,0.1468 0.6541,0.4468 0.32412,0.2502 0.61063,0.4521 0.63623,0.4496 0.0256,0 -0.0176,-0.1378 -0.0964,-0.3008 -0.14132,-0.293 -0.20776,-0.6799 -0.13299,-0.7736 0.0721,-0.091 0.23021,-0.016 0.63533,0.3045 0.25002,0.1985 0.40764,0.3028 0.42364,0.2826 0.016,-0.016 0.0241,-0.084 0.0311,-0.1441 0.005,-0.077 0.0226,-0.1147 0.0653,-0.1182 0.11538,-0.013 0.31049,0.2668 0.53345,0.7634 0.46517,1.0356 1.23016,2.3852 1.45255,2.5626 0.0909,0.072 0.13708,0.088 0.16317,0.055 0.0222,-0.023 -0.018,-0.3107 -0.0847,-0.6344 -0.16622,-0.8064 -0.26182,-1.7254 -0.22517,-2.162 0.0403,-0.4796 0.0875,-0.5314 0.28617,-0.3161 0.0556,0.06 0.0992,0.083 0.11662,0.061 0.0175,-0.017 0.0376,-0.1741 0.0501,-0.3438 0.0272,-0.3652 0.11182,-0.6448 0.32459,-1.062 0.17762,-0.3493 0.23116,-0.3842 0.43091,-0.2782 0.22701,0.1206 0.33013,0.3226 0.36879,0.7224 0.0195,0.2034 0.0181,0.464 -0.004,0.5789 -0.0217,0.115 -0.0233,0.2217 -0.004,0.2372 0.0416,0.033 0.18478,-0.067 0.21117,-0.1457 0.009,-0.03 0.0417,-0.069 0.0878,-0.074 0.0982,-0.034 0.12989,0.087 0.0943,0.3624 -0.0282,0.2135 -0.15366,0.5842 -0.37577,1.106 -0.0504,0.1207 -0.0787,0.23 -0.06,0.2443 0.0559,0.044 0.26694,-0.1008 0.54984,-0.376 0.44402,-0.4324 0.6196,-0.5239 0.76923,-0.4046 0.13155,0.1044 0.11858,0.3568 -0.0339,0.6688 -0.11665,0.2388 -0.21641,0.3716 -0.70828,0.9475 -0.94608,1.1051 -0.99395,1.1694 -1.04602,1.3867 -0.0507,0.2121 -0.0272,0.5565 0.0506,0.7305 0.0883,0.1976 0.56046,0.6365 0.95357,0.8863 0.93454,0.5939 1.40634,0.5651 2.93581,-0.1794 1.3351,-0.6499 2.46586,-1.4315 3.5562,-2.4582 0.47328,-0.4448 1.05383,-1.0601 1.34331,-1.4206 0.22325,-0.2856 0.35085,-0.3529 0.52584,-0.3148 0.10669,0.024 0.13174,0.046 0.18886,0.1641 0.10873,0.2238 0.0425,0.3733 -0.37776,0.8521 -1.64191,1.8713 -3.6721,3.2556 -5.93425,4.0466 -0.51033,0.1785 -1.26039,0.5415 -1.74778,0.846 -0.25422,0.1593 -0.32106,0.2223 -0.59961,0.5691 -0.29811,0.3807 -0.30397,0.4036 -0.31731,0.5677 -0.01,0.4243 0.31338,1.0774 0.84341,1.706 0.5842,0.6928 0.66823,0.8664 0.43524,0.9 -0.17678,0.025 -0.21481,0.098 -0.1488,0.289 0.12175,0.3531 0.0909,0.6236 -0.0654,0.574 -0.0343,-0.011 -0.15494,-0.068 -0.26794,-0.1261 -0.34029,-0.1764 -0.38433,-0.058 -0.20205,0.5462 0.14642,0.4863 0.1022,0.6366 -0.15147,0.5259 -0.0879,-0.038 -0.16628,-0.047 -0.18703,-0.021 -0.022,0.022 -0.0256,0.201 -0.0139,0.3916 0.0117,0.1906 0.006,0.4134 -0.0129,0.4949 -0.0332,0.1512 -0.14945,0.3274 -0.21727,0.3349 z"
         style="display:inline;fill:url(#linearGradient6947);fill-opacity:1" />
    </g>
  </g>
</svg>
